<svg xmlns="http://www.w3.org/2000/svg" viewBox="0 0 512 512" style="enable-background:new 0 0 512 512" xml:space="preserve"><path style="fill:#ff9811" d="M301.176 45.176C301.176 20.226 280.949 0 256 0s-45.176 20.226-45.176 45.176c0 16.718 9.089 31.306 22.588 39.118v36.176h45.176V84.295c13.499-7.813 22.588-22.4 22.588-39.119z"/><path style="fill:#ff5023" d="M256 0v120.471h22.588V84.295c13.499-7.813 22.588-22.398 22.588-39.118C301.176 20.226 280.949 0 256 0z"/><path style="fill:#50412e" d="M361.412 481.882v-90.353c0-58.217-47.194-105.412-105.412-105.412s-105.412 47.194-105.412 105.412v90.353h210.824z"/><path style="fill:#2a2718" d="M361.412 481.882v-90.353c0-58.217-47.194-105.412-105.412-105.412v195.765h105.412z"/><path style="fill:#93c7ef" d="M120.471 466.824H391.53V512H120.471z"/><path style="fill:#5a8bb0" d="M256 466.824h135.529V512H256z"/><path style="fill:#ff9811" d="M195.765 376.471h120.471v45.176H195.765z"/><path style="fill:#ff5023" d="M256 376.471h60.235v45.176H256z"/><path style="fill:#78b9eb" d="M84.388 248.787c31.102 31.622 93.895 20.301 93.895 20.301s12.36-62.595-18.741-94.217c-31.102-31.622-93.895-20.301-93.895-20.301s-12.361 62.593 18.741 94.217z"/><path style="fill:#3c5d76" d="M427.612 248.787c-31.102 31.622-93.895 20.301-93.895 20.301s-12.36-62.595 18.741-94.217c31.102-31.622 93.895-20.301 93.895-20.301s12.361 62.593-18.741 94.217z"/><path style="fill:#93c7ef" d="M376.471 225.882S322.535 346.353 256 346.353s-120.471-53.936-120.471-120.471S189.466 105.412 256 105.412s120.471 120.47 120.471 120.47z"/><path style="fill:#5a8bb0" d="M256 105.412c66.534 0 120.471 53.936 120.471 120.471S322.534 346.353 256 346.353"/><circle style="fill:#1e2e3b" cx="256" cy="173.176" r="22.588"/><circle style="fill:#3c5d76" cx="203.294" cy="233.412" r="22.588"/><circle style="fill:#1e2e3b" cx="308.706" cy="233.412" r="22.588"/><path style="fill:#1e2e3b" d="M225.882 286.118c0 16.632 13.485 30.118 30.118 30.118 16.634 0 30.118-13.485 30.118-30.118h-60.236z"/></svg>
